<svg xmlns="http://www.w3.org/2000/svg" xmlns:xlink="http://www.w3.org/1999/xlink" id="Layer_1" x="0px" y="0px" viewBox="0 0 233.1 82.5" style="enable-background:new 0 0 233.1 82.5;" xml:space="preserve"><style type="text/css">	.st0{fill:#3B3D3D;}	.st1{fill:#CEAA93;}</style><g>	<path class="st0" d="M94.2,19.4v19.3l1.9,0.6v0.3H89v-0.3l1.9-0.6V19.4h-5.5L84,22.4h-0.5v-3.7h18v3.7h-0.5l-1.4-3.1H94.2z"></path>	<path class="st0" d="M108.1,38.7l1.6,0.6v0.3h-6.4v-0.3l1.8-0.6V19.2l-1.8-0.4v-0.3l4.5-0.5l0.4,0.4v6.3l-0.1,2l0.1,0.1  c1.5-1.5,3.9-2.2,5.8-2.2c3.1,0,4.5,2,4.5,5.1v9l1.8,0.6v0.3h-6.4v-0.3l1.6-0.6v-8.5c0-2.6-0.8-4.6-2.9-4.6c-1.3,0-3.1,0.7-4.3,1.8  V38.7z"></path>	<path class="st0" d="M124.4,32.1c0,4.2,1.9,6.6,5.8,6.6c1.7,0,3.1-0.5,4.4-1.8l0.3,0.4c-1.5,1.5-3.4,2.3-6,2.3  c-5.2,0-7.7-3.2-7.7-7.4c0-4.7,3.1-7.7,7.4-7.7c3.9,0,6.6,2.4,6.6,6c0,0.4,0,0.8-0.1,1.2l-0.4,0.4H124.4z M124.4,31.7l7.9-0.4  c0-4.1-1.3-6.2-3.5-6.2C126.7,25,124.5,27.1,124.4,31.7z"></path></g><g>	<path class="st1" d="M153.4,18.8c5.9,0,10.1,3.9,10.1,10.4c0,6.5-4.2,10.4-10.1,10.4h-9.5v-0.2l1.9-0.5V19.5l-1.9-0.4v-0.3H153.4z   M149.1,19.4V39h4.3c3.9,0,6.7-3.2,6.7-9.8c0-6.6-2.8-9.8-6.7-9.8H149.1z"></path>	<path class="st1" d="M168.6,32.1c0,4.2,1.9,6.6,5.8,6.6c1.7,0,3.1-0.5,4.4-1.8l0.3,0.4c-1.5,1.5-3.4,2.3-6,2.3  c-5.2,0-7.7-3.2-7.7-7.4c0-4.7,3.1-7.7,7.4-7.7c3.9,0,6.6,2.4,6.6,6c0,0.4,0,0.8-0.1,1.2l-0.4,0.4H168.6z M168.6,31.7l7.9-0.4  c0-4.1-1.3-6.2-3.5-6.2C170.9,25,168.8,27.1,168.6,31.7z"></path>	<path class="st1" d="M185.7,38.7l1.6,0.6v0.3h-6.4v-0.3l1.8-0.6v-13l-1.8-0.4V25l4.5-0.5l0.4,0.4l-0.1,1.8l0.1,0.1  c1.5-1.5,3.9-2.2,5.8-2.2c3.1,0,4.5,2,4.5,5.1v9l1.8,0.6v0.3h-6.4v-0.3l1.6-0.6v-8.5c0-2.6-0.8-4.6-3.1-4.6c-1.5,0-3.1,0.7-4.2,1.8  V38.7z"></path>	<path class="st1" d="M198.5,25.1c2.1-0.5,3.6-2.1,4.5-3.8l0.4,0.4v3h4.9v0.6h-4.9v10.4c0,1.8,0.8,3.1,2.5,3.1c0.9,0,1.7-0.4,2.4-1  l0.3,0.3c-0.9,1-2.3,1.6-4,1.6c-2.8,0-4.2-1.7-4.2-4V25.3h-1.8V25.1z"></path>	<path class="st1" d="M219.5,37.7c-1.4,1.3-3.3,2-5.3,2c-2.8,0-4-1.4-4-3.4c0-3.5,3.5-4,9.3-4.9v-2.8c0-2-1.1-3.5-3.1-3.5  c-0.8,0-1.5,0.2-2.2,0.7v2.4c0,1.2-0.8,2-1.8,2c-1,0-1.8-0.7-1.8-1.9c0-2.3,2.9-3.7,5.8-3.7c4,0,6.1,2,6.1,4.5v9.1  c0,0.6,0.2,0.7,0.7,0.7c0.3,0,0.7-0.1,1-0.3l0.2,0.2c-0.6,0.6-1.5,0.8-2.7,0.8C220.6,39.6,219.8,39.2,219.5,37.7L219.5,37.7z   M219.5,31.8c-4.2,0.7-6.2,0.9-6.2,4.1c0,1.8,0.9,2.8,2.5,2.8c1.3,0,2.7-0.7,3.7-1.7V31.8z"></path>	<path class="st1" d="M225.7,39.3l1.8-0.6V19.2l-1.8-0.4v-0.3l4.5-0.5l0.4,0.4v20.3l1.8,0.6v0.3h-6.6V39.3z"></path></g><g>	<path class="st0" d="M102.4,62.8l1.4-3h0.5v3.6H89.1v-0.2l1.9-0.5V43.5l-1.9-0.6v-0.3h7.1v0.3l-1.9,0.6v19.3H102.4z"></path>	<path class="st0" d="M113.5,48.4c4.4,0,7.5,3,7.5,7.6c0,4.6-3.1,7.5-7.5,7.5c-4.5,0-7.5-2.9-7.5-7.5  C105.9,51.4,109,48.4,113.5,48.4z M113.5,63.1c2.6,0,4.3-2.4,4.3-7.1c0-4.7-1.8-7.1-4.3-7.1c-2.6,0-4.3,2.4-4.3,7.1  C109.1,60.6,110.9,63.1,113.5,63.1z"></path>	<path class="st0" d="M138.9,62.8v0.3l-4.5,0.4l-0.4-0.4l0.1-1.7l-0.1-0.1c-1.5,1.5-3.7,2.2-5.5,2.2c-3.1,0-4.7-1.9-4.7-4.7v-9.3  l-1.8-0.4v-0.3l4.5-0.5l0.4,0.4v9.6c0,2.4,0.9,4.2,3.1,4.2c1.4,0,3-0.7,4.1-1.9V49.5l-1.8-0.4v-0.3l4.5-0.5l0.4,0.4v13.7  L138.9,62.8z"></path>	<path class="st0" d="M145.2,62.5l1.6,0.6v0.3h-6.4v-0.3l1.8-0.6v-13l-1.8-0.4v-0.3l4.5-0.5l0.4,0.4l-0.1,1.8l0.1,0.1  c1.5-1.5,3.9-2.2,5.8-2.2c3.1,0,4.5,2,4.5,5.1v9l1.8,0.6v0.3h-6.4v-0.3l1.6-0.6V54c0-2.6-0.8-4.6-3.1-4.6c-1.5,0-3.1,0.7-4.2,1.8  V62.5z"></path>	<path class="st0" d="M169.5,49.5c1.4,0.8,2.2,2.2,2.2,3.9c0,2.9-2.6,4.8-6.2,4.8c-1.5,0-2.8-0.3-3.9-0.9c-0.6,0.7-0.8,1.4-0.8,2  c0,1.1,0.7,1.6,2.3,1.6h5c3.3,0,4.7,1.3,4.7,3.7c0,3.1-2.7,4.9-8.2,4.9c-3.8,0-6.1-0.9-6.1-2.6c0-1.3,1.2-2.4,2.7-3.3  c-1.4-0.4-2.1-1.3-2.1-2.8c0-1.4,0.7-2.4,2-3.7c-1.2-0.8-2-2.1-2-3.7c0-3,2.6-4.8,6.2-4.8c0.4,0,0.7,0,1.1,0.1h6.2v0.3l-2,0.6  H169.5z M162.2,63.6c-1,1.1-1.2,1.8-1.2,2.5c0,2.1,1.6,2.8,4.2,2.8c3.5,0,5.7-1.2,5.7-3.1c0-1.1-0.7-2-2.6-2h-5.3  C162.8,63.7,162.5,63.7,162.2,63.6z M165.5,57.7c1.9,0,3.3-1.5,3.3-4.4c0-2.8-1.4-4.4-3.3-4.4c-1.9,0-3.3,1.5-3.3,4.4  C162.2,56.2,163.6,57.7,165.5,57.7z"></path>	<path class="st0" d="M177.2,56c0,4.2,1.9,6.6,5.8,6.6c1.7,0,3.1-0.5,4.4-1.8l0.3,0.4c-1.5,1.5-3.4,2.3-6,2.3  c-5.2,0-7.7-3.2-7.7-7.4c0-4.7,3.1-7.7,7.4-7.7c3.9,0,6.6,2.4,6.6,6c0,0.4,0,0.8-0.1,1.2l-0.4,0.4H177.2z M177.2,55.5l7.9-0.4  c0-4.1-1.3-6.2-3.5-6.2C179.5,48.9,177.4,50.9,177.2,55.5z"></path>	<path class="st0" d="M190.4,59.6h0.6c0.6,2.8,2.6,3.5,4.4,3.5c2.3,0,3.8-1.1,3.8-3c0-1.8-1.5-2.3-3.8-2.8c-2.4-0.7-4.9-1.3-4.9-4.5  c0-2.5,1.5-4.3,5.3-4.3c1.4,0,2.7,0.3,3.8,0.9l0.6-0.5l0.3,0.3v3.2h-0.6c-0.6-2.8-2.6-3.4-4-3.4c-2,0-3.3,1.2-3.3,2.8  c0,1.7,1.3,2.1,3.3,2.7c2.6,0.8,5.4,1.6,5.4,4.8c0,2.5-1.7,4.4-5.8,4.4c-1.6,0-3-0.3-4.1-0.9l-0.6,0.5l-0.3-0.3V59.6z"></path></g><g>	<path class="st0" d="M42.7,19.3v19.3l1.9,0.6v0.3h-7.1v-0.3l1.9-0.6V19.3H34l-1.4,3.1h-0.5v-3.7h18v3.7h-0.5l-1.4-3.1H42.7z"></path></g><g>	<path class="st1" d="M40.7,27.7c7.9,0,13.5,5.2,13.5,13.9c0,8.7-5.6,13.9-13.5,13.9H28.1v-0.3l2.6-0.6V28.7l-2.6-0.6v-0.4H40.7z   M34.9,28.5v26.2h5.8c5.2,0,9-4.3,9-13c0-8.8-3.8-13.1-9-13.1H34.9z"></path></g><g>	<path class="st0" d="M51,62.8l1.4-3h0.5v3.6H37.6v-0.2l1.9-0.5V43.5l-1.9-0.6v-0.3h7.1v0.3l-1.9,0.6v19.3H51z"></path></g><path class="st0" d="M41.1,81.8L0.4,41.2L41.1,0.6l40.6,40.6L41.1,81.8z M4.2,41.2L41.1,78l36.8-36.8L41.1,4.4L4.2,41.2z"></path></svg>