<svg xmlns="http://www.w3.org/2000/svg" width="497" height="505" viewBox="0 0 497 505" fill="none"><path d="M265.756 504.999H17.7561H11.7563C3.75635 504.999 0.256111 502 0.256111 493C-1.74389 460.5 8.25611 426.5 20.2561 411.5C55.7561 362 96.7561 354.499 136.256 353.499C175.756 352.499 216.256 360.499 249.756 401.999C283.256 443.499 278.256 484.999 277.756 494.499C277.256 503.999 274.756 504.999 265.756 504.999Z" fill="#E7D5C9"></path><path d="M480.756 504.999H292.256C293.756 483.499 292.256 466 290.756 455.5C289.256 445 282.256 412.5 259.756 388C298.542 353.192 327.932 353.496 375.96 353.992L376.756 354C425.256 354.5 464.756 394 471.756 405C500.756 448 496.756 480.5 496.256 492.5C495.756 504.5 492.756 504.999 480.756 504.999Z" fill="#E7D5C9"></path><circle cx="138.256" cy="271.5" r="61" fill="#E7D5C9"></circle><circle cx="358.256" cy="271.5" r="61" fill="#E7D5C9"></circle><path d="M107.256 70.5C107.256 100.5 126.59 119 136.256 124.5L123.256 172C120.756 180 126.756 187.972 133.256 184C140.456 179.6 176.256 157.833 193.256 147.5H208.256C273.756 147.5 310.256 107.5 310.256 70.5C310.256 33.5 264.756 0 208.256 0C151.756 0 107.256 33 107.256 70.5Z" fill="#E7D5C9"></path><path d="M318.756 104C308.756 130.8 272.256 149.833 255.256 156C275.256 173.6 313.59 175.333 330.256 174C344.756 183.167 375.556 202.6 382.756 207C391.756 212.5 396.256 202.5 394.256 195C392.256 187.5 389.256 177.5 382.756 156C413.756 131 411.256 101.5 405.256 90C385.256 47.5 332.256 38.5 318.756 42C322.756 50.5 331.256 70.5 318.756 104Z" fill="#E7D5C9"></path></svg>