<svg xmlns="http://www.w3.org/2000/svg" width="512" height="512" viewBox="0 0 512 512" fill="none"><path d="M187.76 199C182.96 181 188.427 163.166 191.76 156.5C181.76 149.999 170.26 149 164.76 149H99.7603C97.2603 149 79.7603 147 60.7603 161.5C41.7603 176 39.2603 193 34.2603 212C29.2603 231 2.76025 335.5 1.26025 341.5C-0.239748 347.5 -1.73975 359 5.26025 371C12.2603 383 25.2603 387 34.2603 387H63.2603V484C63.2603 490 66.2603 498 71.2603 503C76.2603 508 84.2603 512 92.2603 512H166.76C178.26 512 187.76 504 187.76 502.5C187.76 501 186.26 497.5 186.26 491.5V439.5H181.76C170.26 439 153.26 433 143.76 413C134.26 393 142.76 374.5 148.76 352C154.76 329.5 165.26 276 174.76 257.5C182.36 242.7 197.927 232 204.76 228.5C201.094 226.166 192.56 217 187.76 199Z" fill="#E7D5C9"></path><path d="M323.76 199C328.56 181 323.094 163.166 319.76 156.5C329.76 149.999 341.26 149 346.76 149H411.76C414.26 149 431.76 147 450.76 161.5C469.76 176 472.26 193 477.26 212C482.26 231 508.76 335.5 510.26 341.5C511.76 347.5 513.26 359 506.26 371C499.26 383 486.26 387 477.26 387H448.26V484C448.26 490 445.26 498 440.26 503C435.26 508 427.26 512 419.26 512H344.76C333.26 512 323.76 504 323.76 502.5C323.76 501 325.26 497.5 325.26 491.5V439.5H329.76C341.26 439 358.26 433 367.76 413C377.26 393 368.76 374.5 362.76 352C356.76 329.5 346.26 276 336.76 257.5C329.16 242.7 313.593 232 306.76 228.5C310.427 226.166 318.96 217 323.76 199Z" fill="#E7D5C9"></path><path d="M280.76 244C274.76 244 273.26 243.5 254.76 244H227.26C208.26 244 193.26 261.5 189.26 274.5C185.26 287.5 160.76 383.5 159.76 389.5C158.76 395.5 159.76 402.5 164.76 409.5C169.76 416.5 178.26 419.5 182.26 419.5H206.76C206.594 440.167 206.36 483.4 206.76 491C207.26 500.5 215.76 512 225.26 512H283.76C296.26 512 305.26 500.5 305.26 491V419.5C307.76 419.667 316.06 419.9 329.26 419.5C345.76 419 353.76 401 350.26 385L350.109 384.31C346.259 366.703 328.118 283.742 317.76 265C307.26 246 286.76 244 280.76 244Z" fill="#E7D5C9"></path><circle cx="130.26" cy="67.5" r="67.5" fill="#E7D5C9"></circle><circle cx="381.26" cy="67.5" r="67.5" fill="#E7D5C9"></circle><circle cx="255.76" cy="183" r="50" fill="#E7D5C9"></circle></svg>