<svg xmlns="http://www.w3.org/2000/svg" width="495" height="421" viewBox="0 0 495 421" fill="none"><path d="M41.5 194.999H23.5H8C3 194.999 0 196.999 0 201.499V386.999C0 390.999 3.5 394.499 7.5 394.499H41C45.5 394.499 50 391.499 50 386.999V201.499C50 196.999 44.5 194.999 41.5 194.999Z" fill="#E7D5C9"></path><path d="M66.5 367.499V216.499C76.3333 212.166 98.7 202.399 109.5 197.999C123 192.499 146 192.999 161.5 201.999C177 210.999 279.5 270.999 290 279.499C300.5 287.999 304.5 309.499 296 326.499C287.5 343.499 266.5 349.499 253 341.999C239.5 334.499 195 307.999 184 301.999C173 295.999 168 311.999 175.5 315.999C183 319.999 216 339.499 233 349.499C250 359.499 263 364.999 286 356.999C304.4 350.599 312.333 331.999 314 323.499C356.333 311.999 442.1 288.699 446.5 287.499C452 285.999 484 282.499 492.5 309.999C501 337.499 483 354.499 468.5 358.499C454 362.499 263 414.499 244.5 418.499C226 422.499 212 419.499 200 412.999C188 406.499 154.5 389.999 133.5 377.999C112.5 365.999 100.5 364.499 91.5 363.499C84.3 362.699 71.8333 365.833 66.5 367.499Z" fill="#E7D5C9"></path><path d="M460 120.5C460 187.05 406.05 241 339.5 241C272.95 241 219 187.05 219 120.5C219 53.9497 272.95 0 339.5 0C406.05 0 460 53.9497 460 120.5Z" fill="#E7D5C9"></path><path fill-rule="evenodd" clip-rule="evenodd" d="M344.353 47.4882C354.86 45.8958 364.553 48.4567 370.548 51.4508C374.5 53.425 376.104 58.2297 374.13 62.1824C372.156 66.1351 367.351 67.7389 363.398 65.7646C359.872 64.0034 353.5 62.2846 346.751 63.3076C340.446 64.2631 333.381 67.6506 327.547 76.7939C322.348 87.4347 321.758 100.742 328.846 114.805H366.974C371.392 114.805 374.974 118.386 374.974 122.805C374.974 127.223 371.392 130.805 366.974 130.805H336.333C338.88 138.989 339.899 148.072 339.25 156.831C338.692 164.351 336.862 172.074 333.376 178.991L380.395 178.963V165.602C380.395 161.184 383.976 157.602 388.395 157.602C392.813 157.602 396.395 161.184 396.395 165.602V187C396.395 191.419 392.813 195 388.395 195C388.119 195 387.846 194.986 387.577 194.959L292 195C287.582 195 284 191.419 284 187C284 182.582 287.582 179 292 179H313.951C319.378 173.57 322.583 165.227 323.294 155.648C323.953 146.756 322.366 137.771 319.277 130.805H295.57C291.152 130.805 287.57 127.223 287.57 122.805C287.57 118.386 291.152 114.805 295.57 114.805H311.421C305.483 98.7203 306.661 82.772 313.407 69.2929C313.52 69.0663 313.644 68.8451 313.779 68.6303C322.187 55.1917 333.475 49.1369 344.353 47.4882Z" fill="white"></path></svg>