<svg xmlns="http://www.w3.org/2000/svg" width="514" height="433" viewBox="0 0 514 433" fill="none"><path d="M0 247.59V39.0898C0 34.5897 3 27.5898 10 23.0898C24.5 15.0898 33 22.5898 45.5 39.0898C58 55.5898 60.5 110.59 60.5 118.09C60.5 124.09 66.1667 140.923 69 148.59C63.3333 148.423 49 151.59 37 165.59C16 188.09 27 218.09 39 233.09C48.6 245.09 81.3333 278.09 96.5 293.09C100.667 287.256 106.5 273.19 96.5 263.59C84 251.59 60.5 228.59 52 218.09C43.5 207.59 41 181.09 60.5 170.59C80 160.09 102.5 180.09 118 197.09C133.5 214.09 135.5 216.59 168 231.09C200.5 245.59 217.5 285.09 217.5 311.59V432.59H100.5C100.333 428.09 100.1 414.29 100.5 395.09C101 371.09 93 361.09 85.5 353.59C78 346.09 52.5 319.59 37 305.59C21.5 291.59 0 274.59 0 247.59Z" fill="#E7D5C9"></path><path d="M513.5 247.59V39.0898C513.5 34.5897 510.5 27.5898 503.5 23.0898C489 15.0898 480.5 22.5898 468 39.0898C455.5 55.5898 453 110.59 453 118.09C453 124.09 447.333 140.923 444.5 148.59C450.167 148.423 464.5 151.59 476.5 165.59C497.5 188.09 486.5 218.09 474.5 233.09C464.9 245.09 432.167 278.09 417 293.09C412.833 287.256 407 273.19 417 263.59C429.5 251.59 453 228.59 461.5 218.09C470 207.59 472.5 181.09 453 170.59C433.5 160.09 411 180.09 395.5 197.09C380 214.09 378 216.59 345.5 231.09C313 245.59 296 285.09 296 311.59V432.59H413C413.167 428.09 413.4 414.29 413 395.09C412.5 371.09 420.5 361.09 428 353.59C435.5 346.09 461 319.59 476.5 305.59C492 291.59 513.5 274.59 513.5 247.59Z" fill="#E7D5C9"></path><path d="M257.5 236.59L147 126.09C120.5 99.5904 113.5 62.0904 139.5 27.0904C165.5 -7.90961 212 -3.40961 233.5 9.59039C246.3 17.19 254.833 26.4232 257.5 30.0898C260.167 26.4232 268.7 17.19 281.5 9.59039C303 -3.40961 349.5 -7.90961 375.5 27.0904C401.5 62.0904 394.5 99.5904 368 126.09L257.5 236.59Z" fill="#E7D5C9"></path></svg>